inDegrees=yes
name=ik_lifting_orientations
DataType=double
version=3
OpenSimVersion=4.5-2024-01-10-34fd6af
endheader
time	pelvis_tilt	pelvis_list	pelvis_rotation	pelvis_tx	pelvis_ty	pelvis_tz	hip_flexion_r	hip_adduction_r	hip_rotation_r	knee_angle_r	knee_angle_r_beta	ankle_angle_r	subtalar_angle_r	mtp_angle_r	hip_flexion_l	hip_adduction_l	hip_rotation_l	knee_angle_l	knee_angle_l_beta	ankle_angle_l	subtalar_angle_l	mtp_angle_l	lumbar_extension	lumbar_bending	lumbar_rotation	arm_flex_r	arm_add_r	arm_rot_r	elbow_flex_r	pro_sup_r	wrist_flex_r	wrist_dev_r	arm_flex_l	arm_add_l	arm_rot_l	elbow_flex_l	pro_sup_l	wrist_flex_l	wrist_dev_l
4.73	0.2744121577510513	0.2988113934755141	-85.87442284915291	0	0.9399999998679526	0	45.10493459075327	-10.02436092683028	0	59.9248485433797	1.045885910840904	-5.005117050548973	0	0	45.10493459075327	-10.02436092683028	0	59.9248485433797	1.045885910840904	-5.005117050548973	0	0	-0.1914417137918277	0.09533618708672247	15.74985306593175	9.600642416103325	-4.382908317628183	-10.69855828039406	53.20219911410005	0.8054549601169573	0	0	0	-13.48792843359651	0	89.21164683625716	0.8054549601169573	0	0
4.74	0.1264128629310254	0.1223580357747565	-86.79389365352323	0	0.9399999998679526	0	45.10484604258669	-10.02429033365628	0	59.92489885884851	1.045886789011499	-5.005097800387623	0	0	45.10484604258669	-10.02429033365628	0	59.92489885884851	1.045886789011499	-5.005097800387623	0	0	-0.3788482729169769	0.2870976006999132	15.21681499112002	9.574177593825603	-4.055642524323973	-8.539604175823589	53.02043561120309	0.8049801884808025	0	0	0	-13.48858618604443	0	89.21211142253783	0.8049801884808025	0	0
4.75	0.04133963935769716	0.06298655520400012	-87.66543107214744	0	0.9399999998679526	0	45.10475571669095	-10.02421843041648	0	59.92495017749497	1.045887684690848	-5.005078207086886	0	0	45.10475571669095	-10.02421843041648	0	59.92495017749497	1.045887684690848	-5.005078207086886	0	0	-0.492108973108299	0.3948276983032361	14.64001026264426	9.576808456032211	-3.798058651378171	-6.301838652113564	52.83095731246637	0.8044958237227497	0	0	0	-13.48925726763983	0	89.21258539613882	0.8044958237227497	0	0
4.76	-0.110342077243033	-0.1287189871201148	-88.75989777540575	0	0.9399999998679526	0	45.10468114417366	-10.02415956053116	0	59.92499272685384	1.045888427317255	-5.005062202783636	0	0	45.10468114417366	-10.02415956053116	0	59.92499272685384	1.045888427317255	-5.005062202783636	0	0	-0.6884323413853148	0.5872141972924854	14.41829746659297	9.569595039726705	-3.598798659048663	-4.194666111479143	52.59649696570064	0.8040951814257326	0	0	0	-13.48981316537354	0	89.2129774433965	0.8040951814257326	0	0
4.77	-0.4148097234518882	-0.415130569222693	-89.82428362346896	0	0.9399999998679526	0	45.10458811410233	-10.02408580300816	0	59.92504562440259	1.045889350553646	-5.005042135286092	0	0	45.10458811410233	-10.02408580300816	0	59.92504562440259	1.045889350553646	-5.005042135286092	0	0	-1.019516001758037	0.8904626521903093	14.33175932183378	9.581341597439028	-3.392703487322279	-2.225169207700678	52.37880992833814	0.8035960002369179	0	0	0	-13.49050507917025	0	89.2134659155726	0.8035960002369179	0	0
4.78	-0.6521951998307807	-0.6434450860347474	-90.82331783875347	0	0.9399999998679526	0	45.10449023721738	-10.02400887883011	0	59.92510144733886	1.045890324847683	-5.005021266643631	0	0	45.10449023721738	-10.02400887883011	0	59.92510144733886	1.045890324847683	-5.005021266643631	0	0	-1.283837954749584	1.136714597979541	14.08444643012515	9.571907461362352	-3.186826701437314	-0.2412097393109641	52.25413641088823	0.8030700071571277	0	0	0	-13.49123493177231	0	89.21398062444632	0.8030700071571277	0	0
4.79	-0.8836607198238897	-0.8736786676978937	-91.61118636801854	0	0.9399999998679526	0	45.10440094218812	-10.02393836019205	0	59.92515221381479	1.045891210889837	-5.005002115102745	0	0	45.10440094218812	-10.02393836019205	0	59.92515221381479	1.045891210889837	-5.005002115102745	0	0	-1.5476175189202	1.37458754565656	13.54364406983107	9.489440391729033	-2.950695966986489	1.797825253130048	52.04670618872062	0.8025906933766472	0	0	0	-13.49189942142661	0	89.21444965543569	0.8025906933766472	0	0
4.8	-1.072970766620599	-1.034099856676957	-92.49109721786557	0	0.9399999998679526	0	45.10431476973109	-10.02387051447104	0	59.9252012474065	1.045892066687456	-5.004983709438675	0	0	45.10431476973109	-10.02387051447104	0	59.9252012474065	1.045892066687456	-5.004983709438675	0	0	-1.762535032672562	1.553784940029435	13.10779832275628	9.370732836613875	-2.725039449808135	3.850101511284882	51.96571948636203	0.8021278986948295	0	0	0	-13.49254124955978	0	89.21490252171553	0.8021278986948295	0	0
4.81	-1.242957300119871	-1.179876865860193	-93.37432506188273	0	0.9399999998679526	0	45.10423844561155	-10.02381089954033	0	59.9252448682231	1.045892828014328	-5.004967571355114	0	0	45.10423844561155	-10.02381089954033	0	59.9252448682231	1.045892828014328	-5.004967571355114	0	0	-1.992325856865101	1.741345598578318	12.77425119505167	9.338424136868989	-2.504587329522259	5.886391143337343	51.81540912362186	0.8017172128649552	0	0	0	-13.49311167418396	0	89.21530439704841	0.8017172128649552	0	0
4.82	-1.365072815077158	-1.26094042851757	-94.1366497925108	0	0.9399999998679526	0	45.10420633325464	-10.0237856674247	0	59.92526320947053	1.045893148129485	-5.00496072468198	0	0	45.10420633325464	-10.0237856674247	0	59.92526320947053	1.045893148129485	-5.00496072468198	0	0	-2.24101865915735	1.912166009662115	12.70936854130307	9.208964492645205	-2.447987438588269	7.451641990655601	51.84131171100425	0.8015445028486213	0	0	0	-13.49335154208896	0	89.21547340189402	0.8015445028486213	0	0
4.83	-1.472156009636158	-1.354185708345235	-94.91533396740751	0	0.9399999998679526	0	45.10417640126035	-10.02376220939223	0	59.92528033183517	1.045893446971124	-5.004954363633403	0	0	45.10417640126035	-10.02376220939223	0	59.92528033183517	1.045893446971124	-5.004954363633403	0	0	-2.471700911774952	2.074296260534064	12.67295132079801	9.025411805082101	-2.436542071328989	8.962466461793563	51.85874786176603	0.8013834123295639	0	0	0	-13.49357539373107	0	89.21563103651779	0.8013834123295639	0	0
4.84	-1.470825569394764	-1.338853527516757	-95.47292019528999	0	0.9399999998679526	0	45.10414587236984	-10.02373794307916	0	59.92529758497467	1.045893748095214	-5.004947767296827	0	0	45.10414587236984	-10.02373794307916	0	59.92529758497467	1.045893748095214	-5.004947767296827	0	0	-2.731365995442969	2.249715693275406	12.83929918138719	8.955486984588676	-2.6208140142043	10.08685235614158	51.80999853842312	0.8012198652493425	0	0	0	-13.4938017599679	0	89.2157910749963	0.8012198652493425	0	0
4.85	-1.465900652185122	-1.322691871952631	-96.083843700469	0	0.9399999998679526	0	45.10411125017786	-10.02371038327501	0	59.92531711828594	1.04589408901581	-5.004940274906641	0	0	45.10411125017786	-10.02371038327501	0	59.92531711828594	1.04589408901581	-5.004940274906641	0	0	-3.095912007288937	2.470429478467632	13.19953171192477	8.833743175168802	-3.002086981814138	11.03150657657827	51.92519177570772	0.8010344983557028	0	0	0	-13.49405819382148	0	89.21597246518367	0.8010344983557028	0	0
4.86	-1.369377952027232	-1.227349759061387	-96.68681863582985	0	0.9399999998679526	0	45.10407610728723	-10.02368234987063	0	59.92533690069125	1.045894434283916	-5.004932652053049	0	0	45.10407610728723	-10.02368234987063	0	59.92533690069125	1.045894434283916	-5.004932652053049	0	0	-3.445275530226055	2.6483227130166	14.11455226121393	8.773675180426972	-3.558011341509636	11.45322676607238	51.93417049592319	0.8008464940676573	0	0	0	-13.49431809295716	0	89.21615643618401	0.8008464940676573	0	0
4.87	-1.259090169284194	-1.116793142689104	-97.30829718536837	0	0.9399999998679526	0	45.10404422034098	-10.02365693713658	0	59.92535485295669	1.045894747610057	-5.004925744371449	0	0	45.10404422034098	-10.02365693713658	0	59.92535485295669	1.045894747610057	-5.004925744371449	0	0	-3.741157493537018	2.745895719110799	15.46099617459629	8.492788350668723	-4.187430697207722	11.33545316087479	52.12673082730146	0.8006758860600433	0	0	0	-13.49455396332126	0	89.2163233841095	0.8006758860600433	0	0
4.88	-1.215272099046293	-1.060667474927944	-98.28542908904375	0	0.9399999998679526	0	45.1039211448137	-10.02355997244742	0	59.92542443485804	1.045895962043335	-5.004899486505535	0	0	45.1039211448137	-10.02355997244742	0	59.92542443485804	1.045895962043335	-5.004899486505535	0	0	-4.009394462576878	2.990927132860711	12.61504745464989	8.543160842129703	-4.423302534404685	15.79774830962311	52.20037654798803	0.8000160354914362	0	0	0	-13.49546752801932	0	89.21696907880363	0.8000160354914362	0	0
